<svg width="136" height="76" viewBox="0 0 136 76" fill="none" xmlns="http://www.w3.org/2000/svg">
<path d="M24.277 22.3513C23.9104 27.2589 20.2858 30.8185 13.4151 30.8185C9.48895 30.8185 5.25536 29.6536 2.0033 27.3831V20.944C4.14966 25.2367 9.48893 30.0853 14.9524 30.0261C19.5526 29.967 22.0715 28.0631 22.4381 25.1185C23.4196 17.0179 2.80151 20.6366 4.27381 8.5507C4.76457 4.62457 6.97598 1 13.6634 1C16.9155 1 19.6177 2.289 22.0715 3.578V9.89883C20.1676 4.6837 16.1172 1.43164 12.6227 1.43164C8.44827 1.43164 6.11862 3.82634 5.87028 6.3393C4.94788 14.5641 24.951 12.4118 24.277 22.3572V22.3513Z" fill="#8F2168" stroke="#8F2168" stroke-width="0.443463" stroke-miterlimit="10"/>
<path d="M56.9657 30.511H52.058C51.8747 28.4888 50.5857 14.0083 50.2783 10.8744C49.7875 6.27426 47.5169 1.05913 42.2427 2.09979C35.372 3.38879 34.1421 16.2729 34.1421 21.4289V30.511H29.2936V1.43164H34.1421V16.2197C34.9404 9.28389 37.0276 1 45.004 1C50.0358 1 54.2694 4.43536 55.0676 11.7377C55.6826 17.7511 56.6641 28.2405 56.9716 30.511H56.9657Z" fill="#8F2168" stroke="#8F2168" stroke-width="0.443463" stroke-miterlimit="10"/>
<path d="M87.8049 1V30.0853H82.9564V15.1731C82.1581 22.1088 80.0118 30.3927 72.0945 30.3927C66.3886 30.3927 61.9717 26.8332 61.9717 19.655V1H66.7551V20.5124C66.7551 25.8517 69.5164 30.3277 74.7907 29.287C81.6614 27.998 82.9504 15.1731 82.9504 9.95796V1H87.7989H87.8049Z" fill="#8F2168" stroke="#8F2168" stroke-width="0.443463" stroke-miterlimit="10"/>
<path d="M111.395 3.26462V9.40215C109.863 6.33338 107.469 2.89802 103.543 3.44792C98.3274 4.24615 97.7125 14.3689 97.6533 20.7489V30.5051H92.8048V1.42573H97.6533V14.0083C98.2032 7.6283 99.8647 1 106.061 1C108.574 1 110.112 2.04657 111.401 3.27053L111.395 3.26462Z" fill="#8F2168" stroke="#8F2168" stroke-width="0.443463" stroke-miterlimit="10"/>
<path d="M134.991 3.26462V9.40215C133.459 6.33338 131.065 2.89802 127.138 3.44792C121.923 4.24615 121.308 14.3689 121.249 20.7489V30.5051H116.401V1.42573H121.249V14.0083C121.799 7.6283 123.461 1 129.657 1C132.17 1 133.708 2.04657 134.997 3.27053L134.991 3.26462Z" fill="#8F2168" stroke="#8F2168" stroke-width="0.443463" stroke-miterlimit="10"/>
<path d="M33.4057 60.0387C33.4057 69.3633 24.9385 74.9509 17.2045 74.9509C9.4705 74.9509 1.0033 69.3692 1.0033 60.0387C1.0033 50.7083 9.4705 45.1265 17.2045 45.1265C24.9385 45.1265 33.4057 50.7083 33.4057 60.0387ZM28.3739 60.0387C28.3739 51.9381 23.2829 45.6173 17.2045 45.6173C11.1261 45.6173 6.03513 51.9381 6.03513 60.0387C6.03513 68.1393 11.1261 74.4601 17.2045 74.4601C23.2829 74.4601 28.3739 68.1393 28.3739 60.0387Z" fill="#8F2168" stroke="#8F2168" stroke-width="0.443463" stroke-miterlimit="10"/>
<path d="M69.3649 66.4837C68.9983 71.3914 65.3737 74.9509 58.503 74.9509C54.5768 74.9509 50.3433 73.7861 47.0912 71.5156V65.0765C49.2375 69.3692 54.5768 74.2177 60.0403 74.1586C64.6405 74.0995 67.1594 72.1955 67.526 69.2509C68.5075 61.1503 47.8894 64.769 49.3617 52.6831C49.8525 48.757 52.0639 45.1324 58.7513 45.1324C62.0034 45.1324 64.7055 46.4214 67.1594 47.7104V54.0313C65.2554 48.8161 61.2051 45.5641 57.7106 45.5641C53.5362 45.5641 51.2065 47.9588 50.9582 50.4717C50.0358 58.6965 70.0389 56.5442 69.3649 66.4896V66.4837Z" fill="#8F2168" stroke="#8F2168" stroke-width="0.443463" stroke-miterlimit="10"/>
<path d="M87.9154 32V74.9509H83.0669V32H87.9154Z" fill="#8F2168" stroke="#8F2168" stroke-width="0.443463" stroke-miterlimit="10"/>
<path d="M134.003 60.0387C134.003 69.3633 125.536 74.9509 117.802 74.9509C110.068 74.9509 101.601 69.3692 101.601 60.0387C101.601 50.7083 110.068 45.1265 117.802 45.1265C125.536 45.1265 134.003 50.7083 134.003 60.0387ZM128.972 60.0387C128.972 51.9381 123.881 45.6173 117.802 45.6173C111.724 45.6173 106.633 51.9381 106.633 60.0387C106.633 68.1393 111.724 74.4601 117.802 74.4601C123.881 74.4601 128.972 68.1393 128.972 60.0387Z" fill="#8F2168" stroke="#8F2168" stroke-width="0.443463" stroke-miterlimit="10"/>
</svg>
