<svg xmlns="http://www.w3.org/2000/svg" version="1.1" xmlns:xlink="http://www.w3.org/1999/xlink" xmlns:svgjs="http://svgjs.com/svgjs" width="103" height="95"><svg width="103" height="95" viewBox="0 0 103 95" fill="none" xmlns="http://www.w3.org/2000/svg">
<path d="M17.3756 51.8792C17.0945 55.64 14.3213 58.3675 9.05597 58.3675C6.04729 58.3675 2.80316 57.4735 0.311523 55.734V50.7977C1.95709 54.0897 6.04729 57.8026 10.2311 57.7569C13.7564 57.709 15.6839 56.2523 15.9668 53.994C16.7193 47.789 0.923879 50.5622 2.0511 41.3029C2.428 38.2943 4.12014 35.5193 9.24355 35.5193C11.7352 35.5193 13.8042 36.5068 15.6839 37.4943V42.3366C14.2273 38.3404 11.125 35.8483 8.44536 35.8483C5.24736 35.8483 3.46165 37.6819 3.27407 39.6091C2.56771 45.9097 17.8944 44.2637 17.3756 51.8792Z" fill="#8C256A"></path>
<path d="M17.3756 51.8792C17.0945 55.64 14.3213 58.3675 9.05597 58.3675C6.04729 58.3675 2.80316 57.4735 0.311523 55.734V50.7977C1.95709 54.0897 6.04729 57.8026 10.2311 57.7569C13.7564 57.709 15.6839 56.2523 15.9668 53.994C16.7193 47.789 0.923879 50.5622 2.0511 41.3029C2.428 38.2943 4.12014 35.5193 9.24355 35.5193C11.7352 35.5193 13.8042 36.5068 15.6839 37.4943V42.3366C14.2273 38.3404 11.125 35.8483 8.44536 35.8483C5.24736 35.8483 3.46165 37.6819 3.27407 39.6091C2.56771 45.9097 17.8944 44.2637 17.3756 51.8792Z" stroke="#8D256A" stroke-width="0.326415" stroke-miterlimit="0"></path>
<path d="M42.3962 58.1321H38.6354C38.4936 56.5801 37.506 45.4867 37.2706 43.0887C36.8959 39.5634 35.1558 35.5672 31.114 36.3671C25.8487 37.3529 24.909 47.2268 24.909 51.1751V58.1321H21.194V35.8488H24.909V47.1789C25.5196 41.8657 27.1178 35.5193 33.2287 35.5193C37.083 35.5193 40.3271 38.1528 40.9377 43.7472C41.4087 48.354 42.1607 56.3925 42.3962 58.1321Z" fill="#8C256A"></path>
<path d="M42.3962 58.1321H38.6354C38.4936 56.5801 37.506 45.4867 37.2706 43.0887C36.8959 39.5634 35.1558 35.5672 31.114 36.3671C25.8487 37.3529 24.909 47.2268 24.909 51.1751V58.1321H21.194V35.8488H24.909V47.1789C25.5196 41.8657 27.1178 35.5193 33.2287 35.5193C37.083 35.5193 40.3271 38.1528 40.9377 43.7472C41.4087 48.354 42.1607 56.3925 42.3962 58.1321Z" stroke="#8D256A" stroke-width="0.326415" stroke-miterlimit="0"></path>
<path d="M65.9619 35.8483V58.1316H62.2469V46.7079C61.6367 52.0207 59.9925 58.3671 53.9272 58.3671C49.5559 58.3671 46.1703 55.64 46.1703 50.1392V35.8483H49.8375V50.7977C49.8375 54.8879 51.9522 58.3192 55.9963 57.5214C61.2616 56.5339 62.2469 46.7079 62.2469 42.7135V35.8483H65.9619Z" fill="#8C256A"></path>
<path d="M65.9619 35.8483V58.1316H62.2469V46.7079C61.6367 52.0207 59.9925 58.3671 53.9272 58.3671C49.5559 58.3671 46.1703 55.64 46.1703 50.1392V35.8483H49.8375V50.7977C49.8375 54.8879 51.9522 58.3192 55.9963 57.5214C61.2616 56.5339 62.2469 46.7079 62.2469 42.7135V35.8483H65.9619Z" stroke="#8D256A" stroke-width="0.326415" stroke-miterlimit="0"></path>
<path d="M84.921 37.2593V41.9597C83.7441 39.6095 81.9123 36.9782 78.9036 37.4008C74.9074 38.0114 74.4365 45.7683 74.3908 50.6585V58.1325H70.6758V35.8488H74.3908V45.4872C74.8139 40.597 76.0825 35.5198 80.8308 35.5198C82.7584 35.5198 83.9335 36.3197 84.921 37.2593Z" fill="#8C256A"></path>
<path d="M84.921 37.2593V41.9597C83.7441 39.6095 81.9123 36.9782 78.9036 37.4008C74.9074 38.0114 74.4365 45.7683 74.3908 50.6585V58.1325H70.6758V35.8488H74.3908V45.4872C74.8139 40.597 76.0825 35.5198 80.8308 35.5198C82.7584 35.5198 83.9335 36.3197 84.921 37.2593Z" stroke="#8D256A" stroke-width="0.326415" stroke-miterlimit="0"></path>
<path d="M101.995 37.2593V41.9597C100.82 39.6095 98.9865 36.9782 95.9778 37.4008C91.9816 38.0114 91.5107 45.7683 91.465 50.6585V58.1325H87.75V35.8488H91.465V45.4872C91.8881 40.597 93.1567 35.5198 97.905 35.5198C99.8326 35.5198 101.008 36.3197 101.995 37.2593Z" fill="#8C256A"></path>
<path d="M101.995 37.2593V41.9597C100.82 39.6095 98.9865 36.9782 95.9778 37.4008C91.9816 38.0114 91.5107 45.7683 91.465 50.6585V58.1325H87.75V35.8488H91.465V45.4872C91.8881 40.597 93.1567 35.5198 97.905 35.5198C99.8326 35.5198 101.008 36.3197 101.995 37.2593Z" stroke="#8D256A" stroke-width="0.326415" stroke-miterlimit="0"></path>
<path d="M18.0694 17.1939C17.7882 20.9547 15.015 23.6822 9.7497 23.6822C6.74102 23.6822 3.49689 22.7882 1.00525 21.0487V16.1124C2.65082 19.4044 6.74102 23.1173 10.9248 23.0716C14.4501 23.0237 16.3777 21.567 16.6606 19.3087C17.4131 13.1037 1.61761 15.8769 2.74483 6.61763C3.12173 3.60895 4.81386 0.833983 9.93728 0.833983C12.4289 0.833983 14.498 1.8215 16.3777 2.80901V7.65128C14.921 3.65508 11.8187 1.16301 9.13909 1.16301C5.94109 1.16301 4.15537 2.99659 3.96779 4.92375C3.26143 11.2244 18.5882 9.57843 18.0694 17.1939Z" fill="#8C256A"></path>
<path d="M18.0694 17.1939C17.7882 20.9547 15.015 23.6822 9.7497 23.6822C6.74102 23.6822 3.49689 22.7882 1.00525 21.0487V16.1124C2.65082 19.4044 6.74102 23.1173 10.9248 23.0716C14.4501 23.0237 16.3777 21.567 16.6606 19.3087C17.4131 13.1037 1.61761 15.8769 2.74483 6.61763C3.12173 3.60895 4.81386 0.833983 9.93728 0.833983C12.4289 0.833983 14.498 1.8215 16.3777 2.80901V7.65128C14.921 3.65508 11.8187 1.16301 9.13909 1.16301C5.94109 1.16301 4.15537 2.99659 3.96779 4.92375C3.26143 11.2244 18.5882 9.57843 18.0694 17.1939Z" stroke="#8D256A" stroke-width="0.326415" stroke-miterlimit="0"></path>
<path d="M43.0898 23.4472H39.329C39.1872 21.8952 38.1996 10.8019 37.9642 8.40381C37.5895 4.87852 35.8494 0.882327 31.8076 1.68226C26.5423 2.66804 25.6026 12.5419 25.6026 16.4902V23.4472H21.8876V1.16348H25.6026V12.494C26.2132 7.18084 27.8114 0.834452 33.9223 0.834452C37.7766 0.834452 41.0207 3.46797 41.6314 9.0623C42.1023 13.6691 42.8543 21.7076 43.0898 23.4472Z" fill="#8C256A"></path>
<path d="M43.0898 23.4472H39.329C39.1872 21.8952 38.1996 10.8019 37.9642 8.40381C37.5895 4.87852 35.8494 0.882327 31.8076 1.68226C26.5423 2.66804 25.6026 12.5419 25.6026 16.4902V23.4472H21.8876V1.16348H25.6026V12.494C26.2132 7.18084 27.8114 0.834452 33.9223 0.834452C37.7766 0.834452 41.0207 3.46797 41.6314 9.0623C42.1023 13.6691 42.8543 21.7076 43.0898 23.4472Z" stroke="#8D256A" stroke-width="0.326415" stroke-miterlimit="0"></path>
<path d="M45.5005 2.52701H67.7842V6.24205H56.3601C61.6728 6.85223 68.0192 8.4965 68.0192 14.5617C68.0192 18.9331 65.2921 22.3187 59.7914 22.3187H45.5005V18.6515H60.4499C64.5401 18.6515 67.9714 16.5368 67.1736 12.4927C66.1861 7.22739 56.3601 6.24205 52.3657 6.24205H45.5005V2.52701Z" fill="#8C256A"></path>
<path d="M45.5005 2.52701H67.7842V6.24205H56.3601C61.6728 6.85223 68.0192 8.4965 68.0192 14.5617C68.0192 18.9331 65.2921 22.3187 59.7914 22.3187H45.5005V18.6515H60.4499C64.5401 18.6515 67.9714 16.5368 67.1736 12.4927C66.1861 7.22739 56.3601 6.24205 52.3657 6.24205H45.5005V2.52701Z" stroke="#8D256A" stroke-width="0.326415" stroke-miterlimit="0"></path>
<path d="M85.6147 2.57404V7.27442C84.4379 4.92423 82.606 2.29288 79.5974 2.71548C75.6012 3.3261 75.1302 11.083 75.0845 15.9732V23.4468H71.3695V1.16349H75.0845V10.8019C75.5076 5.91174 76.7763 0.83446 81.5245 0.83446C83.4521 0.83446 84.6272 1.6344 85.6147 2.57404Z" fill="#8C256A"></path>
<path d="M85.6147 2.57404V7.27442C84.4379 4.92423 82.606 2.29288 79.5974 2.71548C75.6012 3.3261 75.1302 11.083 75.0845 15.9732V23.4468H71.3695V1.16349H75.0845V10.8019C75.5076 5.91174 76.7763 0.83446 81.5245 0.83446C83.4521 0.83446 84.6272 1.6344 85.6147 2.57404Z" stroke="#8D256A" stroke-width="0.326415" stroke-miterlimit="0"></path>
<path d="M102.689 2.57404V7.27442C101.513 4.92423 99.6799 2.29288 96.6712 2.71548C92.675 3.3261 92.2041 11.083 92.1584 15.9732V23.4468H88.4434V1.16349H92.1584V10.8019C92.5814 5.91174 93.8501 0.83446 98.5984 0.83446C100.526 0.83446 101.701 1.6344 102.689 2.57404Z" fill="#8C256A"></path>
<path d="M102.689 2.57404V7.27442C101.513 4.92423 99.6799 2.29288 96.6712 2.71548C92.675 3.3261 92.2041 11.083 92.1584 15.9732V23.4468H88.4434V1.16349H92.1584V10.8019C92.5814 5.91174 93.8501 0.83446 98.5984 0.83446C100.526 0.83446 101.701 1.6344 102.689 2.57404Z" stroke="#8D256A" stroke-width="0.326415" stroke-miterlimit="0"></path>
<path d="M18.0694 87.7902C17.7882 91.5509 15.015 94.2784 9.7497 94.2784C6.74102 94.2784 3.49689 93.3845 1.00525 91.6449V86.7087C2.65082 90.0007 6.74102 93.7135 10.9248 93.6678C14.4501 93.62 16.3777 92.1633 16.6606 89.9049C17.4131 83.7 1.61761 86.4732 2.74483 77.2139C3.12173 74.2052 4.81386 71.4302 9.93728 71.4302C12.4289 71.4302 14.498 72.4178 16.3777 73.4053V78.2475C14.921 74.2513 11.8187 71.7593 9.13909 71.7593C5.94109 71.7593 4.15537 73.5928 3.96779 75.52C3.26143 81.8207 18.5882 80.1747 18.0694 87.7902Z" fill="#8C256A"></path>
<path d="M18.0694 87.7902C17.7882 91.5509 15.015 94.2784 9.7497 94.2784C6.74102 94.2784 3.49689 93.3845 1.00525 91.6449V86.7087C2.65082 90.0007 6.74102 93.7135 10.9248 93.6678C14.4501 93.62 16.3777 92.1633 16.6606 89.9049C17.4131 83.7 1.61761 86.4732 2.74483 77.2139C3.12173 74.2052 4.81386 71.4302 9.93728 71.4302C12.4289 71.4302 14.498 72.4178 16.3777 73.4053V78.2475C14.921 74.2513 11.8187 71.7593 9.13909 71.7593C5.94109 71.7593 4.15537 73.5928 3.96779 75.52C3.26143 81.8207 18.5882 80.1747 18.0694 87.7902Z" stroke="#8D256A" stroke-width="0.326415" stroke-miterlimit="0"></path>
<path d="M43.0898 94.043H39.329C39.1872 92.491 38.1996 81.3976 37.9642 78.9996C37.5895 75.4743 35.8494 71.4781 31.8076 72.278C26.5423 73.2638 25.6026 83.1376 25.6026 87.086V94.043H21.8876V71.7597H25.6026V83.0898C26.2132 77.7766 27.8114 71.4302 33.9223 71.4302C37.7766 71.4302 41.0207 74.0637 41.6314 79.6581C42.1023 84.2649 42.8543 92.3034 43.0898 94.043Z" fill="#8C256A"></path>
<path d="M43.0898 94.043H39.329C39.1872 92.491 38.1996 81.3976 37.9642 78.9996C37.5895 75.4743 35.8494 71.4781 31.8076 72.278C26.5423 73.2638 25.6026 83.1376 25.6026 87.086V94.043H21.8876V71.7597H25.6026V83.0898C26.2132 77.7766 27.8114 71.4302 33.9223 71.4302C37.7766 71.4302 41.0207 74.0637 41.6314 79.6581C42.1023 84.2649 42.8543 92.3034 43.0898 94.043Z" stroke="#8D256A" stroke-width="0.326415" stroke-miterlimit="0"></path>
<path d="M68.0192 92.9149H45.7355V89.1998H57.1596C51.8469 88.5896 45.5005 86.9454 45.5005 80.8801C45.5005 76.5088 48.2276 73.1232 53.7283 73.1232H68.0192V76.7904H53.0698C48.9796 76.7904 45.5484 78.9051 46.3461 82.9492C47.3336 88.2145 57.1596 89.1998 61.1541 89.1998H68.0192V92.9149Z" fill="#8C256A"></path>
<path d="M68.0192 92.9149H45.7355V89.1998H57.1596C51.8469 88.5896 45.5005 86.9454 45.5005 80.8801C45.5005 76.5088 48.2276 73.1232 53.7283 73.1232H68.0192V76.7904H53.0698C48.9796 76.7904 45.5484 78.9051 46.3461 82.9492C47.3336 88.2145 57.1596 89.1998 61.1541 89.1998H68.0192V92.9149Z" stroke="#8D256A" stroke-width="0.326415" stroke-miterlimit="0"></path>
<path d="M85.6147 73.1703V77.8707C84.4379 75.5205 82.606 72.8891 79.5974 73.3117C75.6012 73.9223 75.1302 81.6793 75.0845 86.5694V94.0435H71.3695V71.7597H75.0845V81.3981C75.5076 76.508 76.7763 71.4307 81.5245 71.4307C83.4521 71.4307 84.6272 72.2306 85.6147 73.1703Z" fill="#8C256A"></path>
<path d="M85.6147 73.1703V77.8707C84.4379 75.5205 82.606 72.8891 79.5974 73.3117C75.6012 73.9223 75.1302 81.6793 75.0845 86.5694V94.0435H71.3695V71.7597H75.0845V81.3981C75.5076 76.508 76.7763 71.4307 81.5245 71.4307C83.4521 71.4307 84.6272 72.2306 85.6147 73.1703Z" stroke="#8D256A" stroke-width="0.326415" stroke-miterlimit="0"></path>
<path d="M102.689 73.1703V77.8707C101.513 75.5205 99.6799 72.8891 96.6712 73.3117C92.675 73.9223 92.2041 81.6793 92.1584 86.5694V94.0435H88.4434V71.7597H92.1584V81.3981C92.5814 76.508 93.8501 71.4307 98.5984 71.4307C100.526 71.4307 101.701 72.2306 102.689 73.1703Z" fill="#8C256A"></path>
<path d="M102.689 73.1703V77.8707C101.513 75.5205 99.6799 72.8891 96.6712 73.3117C92.675 73.9223 92.2041 81.6793 92.1584 86.5694V94.0435H88.4434V71.7597H92.1584V81.3981C92.5814 76.508 93.8501 71.4307 98.5984 71.4307C100.526 71.4307 101.701 72.2306 102.689 73.1703Z" stroke="#8D256A" stroke-width="0.326415" stroke-miterlimit="0"></path>
</svg><style>@media (prefers-color-scheme: light) { :root { filter: none; } }
</style></svg>